<svg xmlns="http://www.w3.org/2000/svg" viewBox="0 0 32 32" fill="none">
  <rect width="32" height="32" rx="8" fill="#16a34a"/>
  <path d="M16 7C11.03 7 7 11.03 7 16s4.03 9 9 9 9-4.03 9-9-4.03-9-9-9zm0 2c1.54 0 2.96.47 4.13 1.27L9.27 20.13A6.96 6.96 0 0 1 8 16c0-4.41 3.59-8 8-8zm0 14c-1.54 0-2.96-.47-4.13-1.27l10.86-10.86A6.96 6.96 0 0 1 24 16c0 4.41-3.59 8-8 8z" fill="white" opacity="0.2"/>
  <path d="M22 12c0 0-2 1-4 3-1.5 1.5-2.5 3-2.5 3l-2-2-1.5 1.5 3.5 3.5S18 18 20 16c1.5-1.5 3-4 3-4H22z" fill="white"/>
  <path d="M20 10l3 3-1 4-2-2z" fill="white" opacity="0.8"/>
</svg>
